<?xml version="1.0" standalone="no"?><!DOCTYPE svg PUBLIC "-//W3C//DTD SVG 1.1//EN" "http://www.w3.org/Graphics/SVG/1.1/DTD/svg11.dtd"><svg t="1605108514049" class="icon" viewBox="0 0 1024 1024" version="1.1" xmlns="http://www.w3.org/2000/svg" p-id="10094" width="16" height="16" xmlns:xlink="http://www.w3.org/1999/xlink"><defs><style type="text/css"></style></defs><path d="M192 384h640a42.667 42.667 0 0 1 42.667 42.667v362.666A42.667 42.667 0 0 1 832 832H192v106.667A21.333 21.333 0 0 0 213.333 960h725.334A21.333 21.333 0 0 0 960 938.667V308.82l-10.09-10.154H823.38a98.048 98.048 0 0 1-98.048-98.048V72.66L716.715 64H213.333A21.333 21.333 0 0 0 192 85.333V384z m-64 448H42.667A42.667 42.667 0 0 1 0 789.333V426.667A42.667 42.667 0 0 1 42.667 384H128V85.333A85.333 85.333 0 0 1 213.333 0H743.36L1024 282.453v656.214A85.333 85.333 0 0 1 938.667 1024H213.333A85.333 85.333 0 0 1 128 938.667V832z m61.376-364.885c-27.435 0-49.899 6.528-67.712 19.968-19.221 13.824-28.501 33.024-28.501 57.216s9.621 42.624 29.226 55.296c7.467 4.608 27.094 12.288 58.432 23.04 28.139 9.216 44.523 15.36 49.515 18.048 15.68 8.448 23.872 19.968 23.872 34.56 0 11.52-5.696 20.352-16.384 27.264-10.688 6.528-25.664 9.984-44.181 9.984-21.014 0-36.352-4.224-46.315-11.904-11.05-8.832-17.813-23.808-20.672-44.544H85.333c1.792 34.944 13.547 60.288 34.923 76.416 17.45 13.056 42.027 19.584 73.387 19.584 32.426 0 57.706-7.296 75.52-21.12 17.813-14.208 26.73-33.792 26.73-58.368 0-25.344-11.05-44.928-33.13-59.136-9.984-6.144-32.064-15.36-66.624-26.88-23.51-8.064-38.123-13.824-43.478-16.896-12.096-6.912-17.813-16.512-17.813-28.032 0-13.056 4.992-22.656 15.68-28.416 8.555-4.992 20.672-7.296 36.693-7.296 18.539 0 32.79 3.456 42.048 11.136 9.259 7.296 16.022 19.584 19.584 36.48h41.344c-2.496-29.952-12.821-52.224-30.656-66.432-16.725-13.44-40.256-19.968-70.186-19.968z m118.976 5.376l90.496 274.176h50.24l90.496-274.176h-45.227l-69.845 223.488h-1.067L353.6 472.49h-45.227z m368.405-5.376c-37.76 0-67.69 13.824-89.792 42.24-21.013 26.496-31.36 60.288-31.36 101.376 0 40.704 10.347 74.112 31.36 99.84 22.443 27.648 53.803 41.472 94.422 41.472 22.805 0 43.093-3.072 61.632-9.216a143.83 143.83 0 0 0 46.314-26.112V600.747H680.32v38.4h67.328v56.448c-8.533 5.376-17.45 9.6-27.435 12.672a123.285 123.285 0 0 1-34.197 4.608c-30.997 0-53.803-9.216-68.416-27.648-13.525-17.28-20.31-42.24-20.31-74.496 0-33.792 7.489-59.52 22.827-77.952 13.867-17.664 32.768-26.112 56.64-26.112 19.222 0 34.902 4.224 46.656 13.056 11.414 8.832 19.243 21.888 22.827 39.552h42.027c-4.63-30.72-16.043-53.376-34.198-68.736-18.88-15.744-44.544-23.424-77.312-23.424z" p-id="10095" fill="#3ddc84"></path></svg>